<svg xmlns="http://www.w3.org/2000/svg" viewBox="0 0 216.89 56.01"><defs><style>.cls-1{isolation:isolate;}.cls-2{mix-blend-mode:multiply;}.cls-3{fill:#fff;}</style></defs><title>csun-logo</title><g class="cls-1"><g id="Layer_1" data-name="Layer 1"><g class="cls-2"><path class="cls-3" d="M186.84,2V4.9c7.54.87,9.21,3.65,9.21,11V39.15h-.39L167.4,2h-37V4.9c7.54.87,9.21,3.65,9.21,11V35.7c0,6-1.19,8.89-3.81,11.59a12.34,12.34,0,0,1-9.13,3.41c-8.49,0-13.73-4-13.73-13.26V8.4c0-2.62,1.43-3.18,6.91-3.41V2H87.67a58.26,58.26,0,0,1-6.61-.24c-1.65-.25-3.6-1-5.23-1.29A30,30,0,0,0,70.31,0C60.09,0,53.19,7.29,53.19,17.3c0,9.76,7.94,12.86,16,15.4,9.13,3,12.62,5.08,12.62,10.56,0,4.21-2.86,8.89-9.76,8.89-6.59,0-11.5-4-15.55-13h-3.9V55.55h3.37l2.66-2.38c3.09,1.51,8,2.38,12.3,2.38,13.41,0,18.65-9,18.65-17.78,0-9.84-7.78-12.94-15.08-15.32-8.73-2.78-12.62-4.52-12.62-9.92,0-5.16,3.57-8.33,8.41-8.33,5.79,0,10.65,2,13.25,9.38h3.33V12.13C86.84,8.26,89.76,5,94.41,5S102,8.26,102,12.13V37.84c0,11.67,8.1,17.62,21.43,17.62s20.24-7.7,20.24-17.94V12.13c0-3.87,2.91-7.11,7.55-7.11s7.55,3.25,7.55,7.11v28c0,7.54-1,10.08-8.1,11.11v2.94h20.56V51.26c-7.62-1-8.57-3.65-8.57-11.11V13.57h.29l31.81,42h5.2V15.94c0-7.38.55-10,7.62-11V2Z"/><path class="cls-3" d="M29.18,50.6c-8.4,0-17.11-7.6-17.11-23.43,0-15.43,7.2-23.35,15.35-23.35,7,0,12.23,5.84,15.43,15.51h3.6V.38h-3.2L40.94,3.82A28.51,28.51,0,0,0,27.67.38C12,.38,0,12.3,0,28.45,0,44.2,9.68,55.55,26.31,55.55c11.43,0,18.55-6.34,22.31-15l-3-1.44C41.82,46.74,36.62,50.6,29.18,50.6Z"/></g><path class="cls-3" d="M208.87,52a4,4,0,1,1,4,4A3.9,3.9,0,0,1,208.87,52Zm7.42,0a3.41,3.41,0,1,0-3.42,3.51A3.25,3.25,0,0,0,216.29,52Zm-4,1.59H213V54h-2v-.42h.65V50.31H211v-.43h2.1c1.25,0,1.61.56,1.61,1.09s-.32.89-1.18,1V52c.69.11.92.43,1,.89l0,.42c0,.24.07.31.18.31s.2-.07.29-.33l.29.11c-.13.4-.36.69-.76.69s-.72-.24-.76-.85l0-.4c0-.43-.18-.65-.72-.65h-.67Zm.65-1.79c.58,0,.87-.27.87-.78s-.25-.71-.81-.71h-.71v1.48Z"/></g></g></svg>