<svg xmlns="http://www.w3.org/2000/svg" viewBox="0 0 350 137.98"><defs><style>.cls-1{fill:#fff;}</style></defs><title>mt-logo</title><g id="Layer_2" data-name="Layer 2"><g id="Layer_1-2" data-name="Layer 1"><path class="cls-1" d="M70.56,41.93v8.28h.5c14.88-9,30.25-9.68,39.43-9.68,24.79,0,33.22,7.08,36.45,9.68,5.7-3.3,18.09-9.68,39.16-9.68,42.17,0,42.17,16.64,42.17,23.36v39.19h-34V68.18c0-7.23,0-15.25-18.11-15.25-8.92,0-18.1,2.71-21.31,6.73-3,3.42-4.22,6.49-4.22,14v29.39h-34V69.57c0-10.39.24-16.64-17.6-16.64-8.93,0-18.1,2.36-21.57,5.9C74.79,61.55,73,64.38,73,73.37v29.72h-34V41.93Z"/><path class="cls-1" d="M310.19,55.48H285.54V80c0,8.66,0,11.49,10.07,11.49a70.28,70.28,0,0,0,13.52-1.41l1.05-.12,3.17,12.44a174.19,174.19,0,0,1-28.61,2.45c-11.12,0-25.45-1.65-30.74-6.2-4.51-3.76-5-7.39-5-16.66V55.48H232.28V42.69H249V30.61l36.57-9.49V42.69h24.65Z"/><path class="cls-1" d="M22.47,137.67C9,117.29,0,93.07,0,68.7,0,39.93,11.31,16.47,22.75,0H36.4c-10.13,22.47-17,41.53-17,69.29,0,31.83,11.29,56.36,16.43,67.49a2.64,2.64,0,0,1,.45.89Z"/><path class="cls-1" d="M327.55.3C341,20.7,350,44.93,350,69.29c0,28.76-11.3,52.22-22.74,68.69H313.6c10.13-22.48,17-41.56,17-69.28,0-31.86-11.3-56.36-16.45-67.52a2.47,2.47,0,0,1-.43-.88Z"/><path class="cls-1" d="M42.81,119h4v1.78h.1c1.41-1.14,4-2.09,7.82-2.09s6.35.78,7.42,2.26c.91-.7,3.17-2.26,8.07-2.26,8.07,0,8.12,3.4,8.12,4.32v8.81H73.87v-8.1c0-1.23,0-3.14-4.69-3.14-1.91,0-4.18.47-5.24,1.34a3,3,0,0,0-1.17,2.45v7.46H58.35v-8.35c0-1.22-.25-2.89-4.6-2.89-2.37,0-4.59.61-5.4,1.49a4.07,4.07,0,0,0-1.11,3.1v6.66H42.81Z"/><path class="cls-1" d="M85.78,124.14c.25-1.69,2.52-3.69,7.46-3.69,3.18,0,5.7,1,6.61,2.05a3.45,3.45,0,0,1,.71,1.64H85.78m14.62,3.52c-.56.74-1.92,2.64-6.91,2.64-3.93,0-7.61-1.31-8-4.39h19.56c.41-6.94-9.62-7.26-11.85-7.26-8,0-12.26,2.9-12.26,6.81s4.39,6.62,12.51,6.62c6.46,0,10.13-1.74,11.45-4.16Z"/><path class="cls-1" d="M110.9,125.37c0-.93.29-4.92,7-4.92,5.4,0,7.16,2.63,7.16,5.13,0,4.4-5.55,4.73-7,4.73-2.57,0-7.15-.9-7.15-4.94m14,6.42H129V114.05h-4.43v6.37h-.1c-1.36-1-3.84-1.76-7.11-1.76-6.56,0-11.05,2.53-11.05,6.71s5,6.73,11.25,6.73c1,0,4.84,0,7.21-1.94h.1Z"/><path class="cls-1" d="M133.44,119h4.44v12.83h-4.44V119m0-4.91h4.44v2.48h-4.44Z"/><path class="cls-1" d="M158.9,126.14a3,3,0,0,1-2,3,15.09,15.09,0,0,1-6.31,1.21c-4,0-5.25-1.12-5.25-2,0-1.74,3.48-2,6.21-2.18,2.31-.17,5.59-.5,7.31-.81v.79m-13.16-3.25c.56-1.07,1.26-2.45,6.81-2.45,6.5,0,6.45,1.81,6.35,3.19-2.52.44-7.31.7-8,.75-2.88.17-10.29.6-10.29,4,0,2.13,3.18,3.69,8.92,3.69a23.63,23.63,0,0,0,9.63-1.89,3.09,3.09,0,0,0,.91,1.59h4.64c-1.42-1.24-1.42-2.08-1.42-5.37V123.5c0-2.23,0-4.84-10.14-4.84s-11.29,2.82-11.79,4Z"/><path class="cls-1" d="M179.83,121.66h-4.69v5.19c0,1.83,0,2.42,1.92,2.42a12.81,12.81,0,0,0,2.57-.3h.2l.62,2.63a30.7,30.7,0,0,1-5.46.52c-2.12,0-4.83-.36-5.85-1.32-.85-.8-1-1.56-1-3.52v-5.6H165V119h3.18v-2.55l7-2V119h4.69Z"/><path class="cls-1" d="M186.7,124.27c-.05-1.68,1.91-3,5.19-3,1.06,0,5,.2,5.15,3H186.7m9.93,3.45c-.35.59-1.17,1.77-4.39,1.77-3.93,0-5.6-1.61-5.7-3.14h17.35c.15-3.8-2.57-7.69-12.4-7.69-8.27,0-12,3.33-12,6.8A5.24,5.24,0,0,0,181,129c2.78,2.92,8.82,3.07,11.09,3.07,8.68,0,10.85-3,11.41-3.82Z"/><path class="cls-1" d="M212.1,119v1.73h.11a14.75,14.75,0,0,1,8-2c5,0,6.76,1.49,7.42,2a14.87,14.87,0,0,1,8-2c8.58,0,8.58,3.5,8.58,4.91v8.23h-6.91v-7.33c0-1.51,0-3.2-3.69-3.2-1.82,0-3.68.57-4.32,1.42a3.79,3.79,0,0,0-.86,2.94v6.17h-6.92v-7c0-2.17.06-3.49-3.58-3.49-1.81,0-3.67.5-4.38,1.24-.56.57-.91,1.16-.91,3.05v6.24H205.7V119Z"/><path class="cls-1" d="M254.38,125.67a3.47,3.47,0,0,1,2.33-3.6,9.18,9.18,0,0,1,3.73-.72c2.36,0,5.5.82,5.5,4,0,1.43-.66,4.13-5.74,4.13-3.24,0-5.81-1.21-5.81-3.81M247.52,119v17.71h6.91v-6.36A14.76,14.76,0,0,0,262,132.1c5.81,0,11-2.06,11-6.6s-5.3-6.84-10.95-6.84c-1.56,0-5.35.27-8,2.19H254V119Z"/><rect class="cls-1" x="275.2" y="114.05" width="6.92" height="17.74"/><path class="cls-1" d="M291.29,124.27c0-1.68,1.92-3,5.21-3,1,0,5,.2,5.13,3H291.29m9.95,3.45c-.36.59-1.17,1.77-4.4,1.77-3.93,0-5.59-1.61-5.69-3.14h17.35c.16-3.8-2.57-7.69-12.4-7.69-8.28,0-12,3.33-12,6.8a5.27,5.27,0,0,0,1.56,3.57c2.77,2.92,8.82,3.07,11.09,3.07,8.67,0,10.85-3,11.41-3.82Z"/><polygon class="cls-1" points="256.68 134.43 255.88 134.43 255.88 134 258.02 134 258.02 134.43 257.21 134.43 257.21 136.51 256.68 136.51 256.68 134.43"/><polygon class="cls-1" points="258.36 134 259.16 134 259.65 135.71 259.65 135.71 260.14 134 260.96 134 260.96 136.51 260.45 136.51 260.45 134.53 260.45 134.53 259.92 136.51 259.4 136.51 258.87 134.53 258.86 134.53 258.86 136.51 258.36 136.51 258.36 134"/></g></g></svg>