<?xml version="1.0" encoding="utf-8"?>
<!-- Generator: Adobe Illustrator 21.1.0, SVG Export Plug-In . SVG Version: 6.00 Build 0)  -->
<svg version="1.1" id="Layer_1" xmlns="http://www.w3.org/2000/svg" xmlns:xlink="http://www.w3.org/1999/xlink" x="0px" y="0px"
	 viewBox="0 0 555.7 179" style="enable-background:new 0 0 555.7 179;" xml:space="preserve">
<style type="text/css">
	.st0{fill:#FFFFFF;}
</style>
<g>
	<path class="st0" d="M0.5,126.6c-0.8-5.9-0.4-14.4-0.4-18.6L8.9,7.7h32.9l-9,101.2c-1.9,21.9,6.7,37.5,28.5,37.5
		c22.4,0,34.2-15.9,36.1-35.3l9.3-103.5h32.8l-9.1,102.1c-3.7,39.3-29.8,68.8-71.9,68.8C25.7,178.6,4.5,157.4,0.5,126.6"/>
	<path class="st0" d="M153,92.6c4.3-48.2,36.8-88.1,92.9-88.1c14.8,0,29,3.4,43.1,12.5l-3.8,39.8C272.4,39.8,257,37,242.8,37
		c-34.9,0-54.1,24.3-56.8,55c-2.7,29.9,12.8,54.2,46.6,54.2c14.8,0,30.4-4.3,46.9-20.7l-3.7,40.9c-16,8.7-30.8,12.6-45.8,12.6
		C174.4,179,149,137.7,153,92.6"/>
	<path class="st0" d="M315.3,7.7h32.8l-12,136.3h47c3.3,0,14.5-0.2,17.5-0.4c-0.2,1.6-3,31.5-3,31.5h-97.2L315.3,7.7z"/>
	<path class="st0" d="M486,70.2c1.1-2.4,2.1-5.3,2.4-7c0,0,0.5,0,0.5,0c0.2,2.1,0.6,4.6,1.3,7.1c1.8,7.6,14.6,50,14.6,50h-41.4
		C463.4,120.2,485.6,71.3,486,70.2 M494.4,0l-2.3,0l-89.7,175.1h34.8l12.6-26.6h63.2l7.9,26.6h34.7L494.4,0z"/>
</g>
</svg>
