<svg xmlns='http://www.w3.org/2000/svg' viewBox="0 0 100 108" enable-background="new 14 1 80 108" xml:space="preserve" class="svg">
    <style>
        .svg .svg_icon {
            fill: #18181C;
        }
        .svg:hover .svg_icon {
            fill:red;
        }
        .svg:hover {
            cursor: pointer;
        }
    </style>
    <g>
        <path class="svg_icon" d="M17.8,37.9c0-20,16.4-36.4,36.4-36.4s36.4,16.4,36.4,36.4S74.2,74.3,54.2,74.3
        C33.9,74.3,17.8,57.9,17.8,37.9L17.8,37.9z M35.8,56.7c0.4,0.6,1.2,0.4,2-0.2c1.6-1.2,3.2-2.2,6.1-2.2c5.7,0,9.9,3.4,16.6,3.4
        c5.1,0,8.3-1.8,10.1-4.4c1.4-2,2-4.9,2-6.9c0-3-1.8-5.1-4.9-5.1c-2.8,0-4.2,1.4-4.2,3.6c0,0.8,0,2.6-0.6,3.4
        c-0.6,0.8-1.6,1.2-2.8,1.2c-3.2,0-6.9-2.6-11.1-2.6h-0.4l27.1-21.8c0.4-0.4,0.6-1.2,0.2-1.6l-4.2-4.9c-0.8-0.6-1.2-0.6-2,0
        c-1.4,1.2-2.8,2.2-5.7,2.2c-4.7,0-9.7-3-16.4-3c-4.7,0-7.3,1.8-9.1,3.6c-1.8,1.8-3,4.9-3,7.9s1.8,4.9,4.7,4.9c2.6,0,4.2-1.4,4.2-3.6
        c0-1.2,0-2.2,0.6-3c0.4-0.8,1.6-1.6,3.4-1.6c2.6,0,7.7,1.8,10.7,1.8h0.2L31.7,49.4c-0.6,0.4-0.6,1.4-0.2,1.8L35.8,56.7z"></path>
        <path class="svg_icon" d="M40.8,104c0-0.2,0.2-1,0.2-1.4l2-7.5c0-0.2,0-0.4-0.4-0.4h-1.8c-0.2,0-0.4,0-0.4,0.2l-0.8,1
        c-0.8-0.8-2.2-1.4-3.8-1.4c-2.8,0-5.9,2-6.9,5.9c-0.8,4.2,1.6,7.3,5.5,7.3c1.4,0,2.8-0.6,3.6-1.4c0.6,0.8,1.4,1.4,3,1.4
        s2.4-0.6,2.6-1.6c0.2-1.2-0.2-1.8-1.2-1.8c-0.4,0-0.8,0.2-1,0.2C41,104.4,40.8,104.2,40.8,104L40.8,104z M18.8,93.1
        c1.4,0,2.6,0.8,4.2,0.8c0.2,0,0.4,0,0.6,0l-12.7,11.3c-0.2,0.2-0.2,0.4,0,0.6l1.8,2c0.2,0.2,0.4,0.2,0.8,0c0.6-0.4,1.4-1,2.4-1
        c1.8,0,4,1,6.7,1c1.8,0,3-0.6,3.6-1.6s0.8-1.8,0.8-2.6c0-1.2-0.6-2-1.8-2c-1,0-1.4,0.6-1.6,1.4c0,0.4,0,1-0.2,1.2
        c-0.2,0.4-0.6,0.4-1,0.4c-1.4,0-2.6-0.8-4.7-0.8c-0.4,0-0.6,0-1,0.2l12.5-11.1c0.2-0.2,0.2-0.4,0-0.6l-1.8-1.8
        c-0.2-0.2-0.4-0.2-0.4,0c-0.4,0.4-1.2,0.6-2.4,0.6c-2,0-4-1-6.3-1c-1.6,0-2.8,0.4-3.6,1.4c-0.8,0.8-1.2,2-1.2,2.8
        c0,1,0.6,1.8,1.8,1.8c1,0,1.6-0.6,1.6-1.4c0-0.4,0.2-1,0.4-1.2C17.8,93.3,18.2,93.1,18.8,93.1L18.8,93.1z M90.4,107.6
        c2,0,3.6-0.6,4.4-1.4c0.4-0.4,0.6-1,0.6-1.4c0-0.8-0.4-1.2-1.4-1.2c-1.2,0-1.8,1.2-3.6,1.2c-2,0-3.4-1.2-3.6-3.2
        c1.2,0.6,2.8,1,4.9,1c2.4,0,4.4-0.8,5.1-2.8c0.8-2.8-1.2-5.5-5.5-5.5c-3.6,0-6.5,2-7.3,5.3C82.7,103.8,85.3,107.6,90.4,107.6
        L90.4,107.6z M61.5,107.4c0.2,0.2,0.4,0.2,0.6,0c0.6-0.4,1-0.8,2-0.8c1.8,0,3.4,1,5.9,1c1.8,0,2.8-0.6,3.4-1.4
        c0.4-0.6,0.8-1.6,0.8-2.4c0-1-0.6-1.8-1.6-1.8s-1.4,0.4-1.4,1.2c0,0.2,0,0.8-0.2,1.2c-0.2,0.2-0.4,0.4-1,0.4c-1,0-2.4-0.6-3.8-0.6
        H66l9.3-7.5c0.2-0.2,0.2-0.4,0-0.6l-1.4-1.6c-0.2-0.2-0.4-0.2-0.6,0c-0.4,0.4-1,0.8-2,0.8c-1.6,0-3.2-1-5.5-1c-1.6,0-2.4,0.6-3,1.2
        s-1,1.6-1,2.6s0.6,1.6,1.6,1.6c0.8,0,1.4-0.4,1.4-1.2c0-0.4,0-0.8,0.2-1s0.6-0.4,1-0.4c0.8,0,2.4,0.6,3.6,0.6l0,0l-9.5,7.5
        c-0.2,0.2-0.2,0.4,0,0.6L61.5,107.4z M50.9,104.2c-0.2,0-0.2,0-0.4,0l9.3-7.5c0.2-0.2,0.2-0.4,0-0.6l-1.4-1.6
        c-0.2-0.2-0.4-0.2-0.6,0c-0.4,0.4-1,0.8-2,0.8c-1.6,0-3.4-1-5.7-1c-1.6,0-2.4,0.6-3,1.2s-1,1.6-1,2.6s0.6,1.6,1.6,1.6
        c0.8,0,1.4-0.4,1.4-1.2c0-0.4,0-0.8,0.2-1s0.6-0.4,1-0.4c0.8,0,2.4,0.6,3.6,0.6h0.2l-9.3,7.3c-0.2,0.2-0.2,0.4,0,0.6l1.4,2
        c0.2,0.2,0.4,0.2,0.6,0c0.6-0.4,1-0.8,2-0.8c1.8,0,3.2,1,5.7,1c1.8,0,2.8-0.6,3.4-1.4c0.4-0.6,0.8-1.6,0.8-2.4c0-1-0.6-1.8-1.6-1.8
        s-1.4,0.4-1.4,1.2c0,0.2,0,0.8-0.2,1.2c-0.2,0.2-0.4,0.4-1,0.4C53.6,104.8,52.4,104.2,50.9,104.2L50.9,104.2z M83.5,90.3
        c0-0.2,0-0.4-0.2-0.4h-2.6c-0.2,0-0.4,0.2-0.4,0.4l-3.4,11.3c-0.4,1.4-0.6,2.2-0.6,3.2c0,0.8,0.2,1.4,0.8,1.8c0.4,0.6,1.4,1,2.8,1
        s2.4-0.6,2.8-1.6s-0.4-1.8-1.2-1.8c-0.6,0-0.8,0.2-1.2,0.2c-0.2,0-0.4-0.2-0.4-0.4c0-0.4,0.2-1.2,0.4-1.6L83.5,90.3z M35.4,104.6
        c-2,0-3.2-1.4-2.6-4c0.4-2.2,2-3.4,3.8-3.4c1,0,1.8,0.4,2.2,1l-1.4,5.7C36.8,104.4,36.2,104.6,35.4,104.6L35.4,104.6z M91.2,96.9
        c1.6,0,2.6,0.8,2.2,1.8c-0.2,0.8-1,1-2.6,1c-1.2,0-2.4-0.4-3.4-0.6C88.1,97.7,89.4,96.9,91.2,96.9z"></path>
    </g>
</svg>